<svg xmlns="http://www.w3.org/2000/svg" viewBox="0 0 64 64" fill="none">
  <!-- Anvil body -->
  <path d="M12 38h40v6c0 2-1 4-3 4H15c-2 0-3-2-3-4v-6z" fill="#4338ca" />
  <!-- Anvil top surface -->
  <path d="M8 32h48c1 0 2 1 2 2v4H6v-4c0-1 1-2 2-2z" fill="#6366f1" />
  <!-- Anvil horn (left) -->
  <path d="M6 34l-4 2v-2c0-1 1-2 2-2h2v2z" fill="#6366f1" />
  <!-- Anvil step (right) -->
  <path d="M56 32h6v6h-6v-6z" fill="#4338ca" />
  <!-- Anvil base -->
  <path d="M18 48h28v4H18v-4z" fill="#312e81" />
  <!-- Hammer -->
  <path d="M30 8h4v20h-4z" fill="#a78bfa" />
  <rect x="24" y="4" width="16" height="8" rx="2" fill="#7c3aed" />
  <!-- Spark left -->
  <circle cx="20" cy="28" r="2" fill="#fbbf24" />
  <!-- Spark right -->
  <circle cx="44" cy="26" r="1.5" fill="#fbbf24" />
  <!-- Spark center -->
  <circle cx="32" cy="24" r="1.5" fill="#fde68a" />
</svg>
